<svg id="icono-pulso" xmlns="http://www.w3.org/2000/svg" viewBox="-45 70 90 90"><title>Resistencia Cardiovascular y Respiratoria</title><style>@keyframes pulso{0%,10%,100%,5%{transform:none}1%,6%{transform:scale(1.2)}}#icono-pulso{animation:pulso 5s infinite}</style><path d="M-14,111l8.2-18.3l11.1,36.2l8.7-17.9H42c1.7-3.7,3-7.8,3-11.9c0-13.4-10.8-24.2-24.2-24.2C12,74.9,4.4,79.6,0,86.5 c-4.4-6.9-12-11.6-20.8-11.6C-34.2,74.9-45,85.7-45,99.1c0,4.1,1.3,8.2,3,11.9H-14z"></path><path d="M15.9,114L4.7,137l-10.9-35.8L-12,114h-28.5c5.2,9.7,13.7,17.9,21.6,25.2c6,5.6,12.4,10.9,19,15.9 c6.6-4.9,12.9-10.3,19-15.9c7.9-7.3,16.4-15.6,21.6-25.2H15.9z"></path></svg>