<svg xmlns="http://www.w3.org/2000/svg" viewBox="0 0 512 512"><path fill="#000" d="M84.3,89.3C35.8,194,69.2,431.2,248.4,512c165.9-78.4,215-292.8,158.8-424.3C356.5,98.4,298.1,96,244.5,81.6,192.3,97.6,146.1,101.5,84.3,89.3Z"/><g><path fill="#000" d="M210.5,250.7l1.9-15.3-2.3-.2c-3-.4-6.5-.8-9.4-2.8-8.8-5.9-18.5-14.7-16.6-30.4.7-6.2,2.7-15.3,11.3-21.4l2.2-1.6c4.4-3.1,8.6-6.1,11.2-10.2l1.6-2.6c1.5-2.6,3.1-5.6,5.7-7.9s2.3-3.1,1.5-7.4c-1.2-6-2-12.4,0-19.1-6.1-3.3-9.7-8.9-12.5-13.3s-6-7.1-10.3-10.5a47.6,47.6,0,0,1-13-16.4c-.8-1.6-1.7-3.1-2.7-4.7-3.4,6.5-8.4,13.4-16.9,17.2a24,24,0,0,1-10.3,2.1,63.2,63.2,0,0,1-7.7-.6,47,47,0,0,0-6.3-.5h-1a28.5,28.5,0,0,1-7.9-1c-10.7-3-16.4-11.3-20.2-18.2s-5.9-15.6-7-23.4h-1.2c-4.4-.4-8.6-.8-12.8-.8s-8.4-1.5-10.5-8.1A10.9,10.9,0,0,1,79,43.7a10.2,10.2,0,0,1,8.2-4.4h.9c3.3.4,6.5.6,9.7.8l4.3.3A58,58,0,0,1,114,10.9C119.7,3.7,126.5,0,134.4,0h.8l5.7.3c2.6.2,5.2.3,7.9.3h.9c10.9,0,19.3,4.7,25.6,13.8A63,63,0,0,1,186,41.6c3.9.7,6.1,2.8,7.9,5.8,7.5.5,15,1,22.6,1.3l9.8.4,8.3.4c3.8.1,7.5.3,11.3.7l15.5,1.4,19,1.6,6.6.5,7.1.4a36.5,36.5,0,0,1,4.6.7,32.5,32.5,0,0,0,4.9.6H306a35,35,0,0,1,4.8.6,12.6,12.6,0,0,0,2.7.4c.3,0,.5-.1.8-.6a6,6,0,0,1,3.6-2.6c1.3-7.8,4.9-14,7.9-18.7,5.2-8.1,11.7-12.9,19.4-14.3a88.4,88.4,0,0,1,14.4-.9h5.9a22.6,22.6,0,0,1,5.5.6c12.1,3.2,20.6,11.7,25.3,25.2a103.4,103.4,0,0,1,3.5,13.8c.1.7.3,1.3.4,2l3.5.3a11.8,11.8,0,0,1,10.7,10.6,10.5,10.5,0,0,1-2.7,7.8,10.9,10.9,0,0,1-7.7,3.3h-5.1c-2.1,10.7-6.7,19.4-13.7,26.1-5.5,5.3-11.4,7.8-18.2,7.8h-1.4l-7.3-.2a55.2,55.2,0,0,0-5.8.2h-2.1c-8,0-14.9-3.3-20.7-9.8a24.3,24.3,0,0,1-2-2.5l-1.2,1.4a98.2,98.2,0,0,1-8.3,7.6l-4.3,3.8c-7,6.4-13.4,10.8-20.1,13.8a7.9,7.9,0,0,0-1.7,2.5c-1.9,3.7-2.6,8-3.3,12.6-.4,2.6-.8,5.2-1.3,7.7-2.6,11-7.6,21.7-15.7,33.5l5.3,2.3,6.7,3.1,3.1,1a35.4,35.4,0,0,1,4.9,1.8c3.6,1.7,14.5,6.8,14.3,20a78.8,78.8,0,0,1-.8,12.7,126.9,126.9,0,0,1-4.1,18.6c-1.6,4.8-3.6,9.4-5.5,13.9l-2.4,5.6-3.5-1.5-1.6,5.8ZM197,65.2l2.1,3.3a27.7,27.7,0,0,0,4.1,5.9l3,2.9c4,3.8,8.1,7.8,11.2,13.1a15.4,15.4,0,0,0,2.2,1.7l.7.4c1.2.9,2.5,1.6,3.8,2.4l3,1.8,3.3,2.4c1.4,1.1,2.9,2.3,3.9,2.5a53.8,53.8,0,0,1,14.5,6c-.3-1.3-.8-2.8-1.3-4.3l-.7-2.3c-2.4-8-.9-15.8,4.4-23.2l-2.6-7.2,4.7-1.6-7.1-.7-23.1-2c-4.7-.3-9.4-.5-14.2-.6l-6.7-.2a13.2,13.2,0,0,1-3-.3l-2.5-.4Zm89.2,6c3.3,1.9,7.4,4.5,9,8.6a22.3,22.3,0,0,1,1.2,9.3c0,1.3,0,2.6.1,3.7,1.9-3.1,4.9-5.8,9.2-8.4s7.2-4.9,8.9-8.4l-2-1.4a12,12,0,0,0-2.6-1.7,46.6,46.6,0,0,0-5.6-.5Zm-24.9-.6,1.7-.8-2.4-.2Z"/><path fill="#fff" d="M403.3,66.6l-7.8-.8c-1.5-6.5-2.4-13-4.5-19.1-3.7-10.4-10.1-18.6-21.4-21.6a16.7,16.7,0,0,0-5-.4c-6.1.2-12.4-.1-18.4.9s-11.9,5.9-15.7,11.8-6.1,10.7-7.1,17.1a4,4,0,0,1-3.4,3.9,1.7,1.7,0,0,0-1,.3c-3.7,5.9-9.2,1.8-13.9,2.2s-7.7-.8-11.5-1.2-9.1-.4-13.6-.8l-34.6-3.1-11.1-.7-18.1-.7L191.8,53a3.1,3.1,0,0,1-2.1-1.3c-2-4.1-3.1-4.8-8-4.6h-.8a59.4,59.4,0,0,0-10.2-29.6c-5-7.2-11.7-11.4-20.9-11.3-4.9.1-9.8-.5-14.8-.6-7.1-.3-12.5,3.5-16.5,8.7a51.9,51.9,0,0,0-10.9,28.9c-.1,1.8-.8,3.2-3.1,3L87.5,45c-2.9-.4-5.9,3.5-4.8,6.8s2,4,5.2,4.1c6.2.1,12.4.9,18.9,1.4,1.1,9,2.6,17.8,7,25.9s8.6,13.1,16.7,15.4a22.9,22.9,0,0,0,6.9.8c7.5-.1,15.2,2.9,22.5-.4s12.7-11,16.2-18.9c.6-1.2,1.1-2.5,2.2-4.9,3.3,5.2,6.3,9.3,8.6,13.8a40.8,40.8,0,0,0,11.4,14.6c4.4,3.4,8.5,7,11.6,11.9s7.5,11.4,15.2,13.1c-3.9,7.1-3.4,14-2,21.2.9,4.3,1,8.9-3.1,12.7s-4.4,6.2-6.4,9.4c-3.7,5.8-9.5,9.4-14.9,13.3s-8.2,10.4-9,17.5c-1.5,12,5.4,19.1,14.2,25,1.8,1.3,4.5,1.6,6.9,1.9a68.9,68.9,0,0,0,8,.1c-.7,5.6-1.3,10.9-2,16.7l18,4.6c2.7-7.1,5.2-13.6,7.9-20.4,8.9,1.9,17.4-1.3,25.8-4.7,2.5-1.1,5.2-1.4,8.8-2.3-1.4,4.7-2.8,8.2-3.4,11.8s-1.6,8.1,0,12.4,1.4,8.4-.2,13.2l15.9,4a6.9,6.9,0,0,1-1.6-1c2.7-6.3,5.7-12.5,7.8-19.1a116.2,116.2,0,0,0,3.9-17.7,93.9,93.9,0,0,0,.8-11.9c.1-7.6-4.8-11.8-11.1-14.8-2.4-1.1-5.2-1.7-7.8-2.7-4.5-1.9-8.8-4.1-13.3-6-1.6-.6-3.3-.9-5.6-1.5.6-.9,1.1-1.8,1.7-2.6,7.9-10.7,14.5-22.1,17.5-35.3,1.7-7.2,1.7-14.9,5.1-21.6,1-2,2.6-4.2,4.4-5.1,7-3.1,13-7.7,18.6-12.8s8.6-7.1,12.4-11.1c2.1-2.2,3.1-5.5,4.6-8.3,2.4,3.3,4.4,6.7,7,9.5,4.7,5.4,10.6,8.4,18.1,7.8a127.1,127.1,0,0,1,13.8,0c6.2.4,11.1-2.1,15.4-6.2,7.2-6.9,10.9-15.6,12.5-25.3.3-1.9.8-2.5,2.7-2.4h7.4a4.6,4.6,0,0,0,4.8-5.1A6,6,0,0,0,403.3,66.6ZM308.6,89.3c-2.8,1.7-5.7,3.9-7.3,6.6s-5.3,6.4-10.1,9.1c.2-3.2.3-5.6.5-8v-.4c-2-4.8,0-10.1-1.8-14.7-1-2.6-4.4-4.5-7.1-6.1-6.7-3.8-13.5-2.9-20.2.4a37.3,37.3,0,0,1-4,1.4c-.7-1.3-1.3-2.6-1.9-3.8l-.9.3c.6,1.5,1.2,3.1,1.7,4.7-4.9,5.9-7.7,12.5-5.3,20.5.8,2.8,1.9,5.5,2.3,8.4s.1,5.8.1,9.2c-1.5-.4-2.7-.4-3.5-1a53.5,53.5,0,0,0-18.1-8.8c-3.2-.7-6-3.7-8.9-5.6s-4.8-2.7-7.1-4.3-3.5-2.3-4.5-4c-3.4-5.9-8.6-10.1-13.3-14.8-2.8-2.8-4.7-6.7-6.9-10.1-1.1-1.5-2-3.1-3.1-4.8,2.1-5.6,6.6-4.8,11.2-3.8l2,.2c7,.2,14.1.2,21.2.8,12,.9,24,2.1,36.1,3.2l10.7.7,32.4,2a59.7,59.7,0,0,1,8.4.8,13,13,0,0,1,4.6,2.5c1.9,1.3,3.7,2.8,5.4,4.1C319.6,81.4,314.5,85.6,308.6,89.3Z"/></g><path fill="#fff" d="M403,317.1c2.4-7.3,4.5-14.7,6.4-22.2L72.8,208.2A396.3,396.3,0,0,0,97.1,331c20.9,56,64,130.8,151.2,171.6C320.7,467.1,375.6,401.4,403,317.1Z"/><g><path fill="#fff" d="M507.4,350a54.6,54.6,0,0,0-4.5-3.9c-.9-.8-1.9-1.5-2.7-2.3l-9.7-8.6-.9-.8,10.5-21.9-29.2-9.1-7.7,12.2-2.5-2.3-15.6-14.2a21.4,21.4,0,0,0-7.8-5c-3.8-1.2-7.7-2.1-11.8-3.1l-5.1-1.2-21-5.2,4.9,4.6a27,27,0,0,0-4-1.4H400L366.3,282a31.3,31.3,0,0,0-6.6-.8c-6.4,0-11.8,2.5-15.1,6.9a19.3,19.3,0,0,0-1.9,3.4,18,18,0,0,0-.8-2.1c-3.4-7.1-10.5-11.8-19-12.6-16.2-1.6-31.2-2.3-44.5-2.3h-7.1l-5.5.2V283c-3.7-5.1-9.3-8.3-16.7-9.2h-.5L207,275h-.4a27,27,0,0,0-6.3,1.9l.8-1-32.4,2.2-27,34.1-7.9-21.2c-1.3-4.9-4.9-6.7-8-6.7a9.9,9.9,0,0,0-2.4.3l-9,1.3h0l-13.2,2.6.6-.6L65.6,296,32.1,332.9l-2.3-27-6.7,1.7c-6.4,2-13.5,4.2-15.5,4.2H2.4l1.5,40.3c-.2,3.9.8,7.2,2.9,9.5s4.2,3.6,8.9,3.6a21.1,21.1,0,0,0,3.6-.2c7.4-.8,14.8-4.2,21.9-10.1l.3-.3L78.2,314,67.7,340.3c-1.8,3.6-1.1,6.1-.1,7.6a6.6,6.6,0,0,0,5.9,3.1l2.2-.2,10.9-2.4c2-.4,6.7-1.2,8.1-7l13.2-37.2,8.5,27.2v.4c4.2,8.7,11.5,9.7,16.6,9.7h2.1c8.4,0,16.2-3.6,23.3-10.8l.2-.2,26.4-34a177.1,177.1,0,0,0-2.4,19.7c-.3,4.9,1.2,16.3,20.1,17.5h.2l47.1-.9a25.9,25.9,0,0,0,17.3-10l.4,9.7,66.9,3.9,4.6.2h0c3.1,0,7.5-.4,10.4-3.6a9.6,9.6,0,0,0,2.1-4.3c5.3,6.1,13.2,11.2,18.3,11.7l43.7,7.1a28.1,28.1,0,0,0,5.6.6h0c5,0,9.1-1.7,11.8-4.5l-5,5.8,11.6,3.1,5.2,1.2c3.9.9,7.7,1.7,11.3,2.8a13.6,13.6,0,0,0,3.8.6,10.1,10.1,0,0,0,8.3-4.4l5-6.6L502,372.7l4.4-8.4c.9-1.8,1.8-3.6,2.6-5.4A8.3,8.3,0,0,0,507.4,350ZM243.3,308.2a5.4,5.4,0,0,1-3.1.9l-28.2.5h-.5l.7-9.3a4.7,4.7,0,0,1,3.7-2.4l26.9-.7c.4.2.5.5.6,1.1Zm158,13.6-23-4h-.4c-2.7-.1-3.7-1.1-4.4-2.6l-2.5-9.2,24.1,3.8c5.3,1.9,6.1,4.3,6.4,5.5l2.9,7.2Zm31.4,20.1c2.3-3.4,2.8-7.9,1-12.9L426,309.6l19.1,18.1Z"/><g fill="#000"><path d="M503.5,354.1c-2.2-2.1-4.7-4-7.1-6.1l-13.8-12.2c3.3-6.8,6.4-13.3,9.6-19.8l-18.9-5.9-8.7,14-.9-.4c-7.5-6.8-14.9-13.7-22.4-20.4a17.8,17.8,0,0,0-5.7-3.8c-5.2-1.6-10.5-2.7-16.6-4.2l34,32-16.6,19,2.7.7c5.6,1.3,11.4,2.4,16.9,4.1,2.7.8,4.4.2,5.9-1.9l8.7-11.3,29.7,25.8c1.2-2.5,2.5-4.7,3.5-7A2.9,2.9,0,0,0,503.5,354.1Z"/><path d="M420.2,310.3c-5.6-8.8-12.7-14.5-21.5-17.1l-33.6-5.7c-14.6-3.2-19.3,6.7-17.7,12.1l4.7,19c1.9,6.6,13.1,15.6,18.9,16.2l43.9,7.1c10.9,2.1,16.3-3,13.5-10.8Zm-19.9,17.1-22.7-4c-4.7-.3-7.8-2.4-9.5-6.5L365,305.4c-1.6-3.1,2.7-6.2,7.3-5l24.1,3.8c5.6,1.8,9.1,4.8,10.4,8.9l4.1,10.5C412.3,328.1,408.8,329.3,400.3,327.4Z"/><path d="M171.6,283.6l-28.1,35.5c-2.4,2.3-4.2,2.3-5.3-.1l-9.9-26.3c-.3-1.7-1.3-3.2-3.7-2.4l-11.1,1.6c-2.1.4-3,1.5-2.5,3.2l10.7,34.2c2.5,5.3,6.3,6.8,12.9,6.5s13.6-2.8,19.8-9l34.5-44.3Z"/><path d="M68.6,301.1,31.9,341.6c-3.2,3.4-4.8,2.9-4.8-1.6l-2.3-26.5s-15.9,5-16.6,5l1.4,34.2c-.4,5.6,2.6,7.9,9.1,6.7s12.6-3.6,18.8-8.8l48.1-53.3Z"/><path d="M89.7,300.4l-17,42.5c-.8,1.6-.8,2.8,1.8,2.3l11.1-2.3c2.4-.5,3.2-1,3.7-3.1l16.4-46.4-11.6,2.3C91.6,296.3,90.1,297.4,89.7,300.4Z"/><path d="M336.1,306.7c-.8-.5-.5-1.2,0-1.6,5.8-9-.8-21.5-13.7-22.7a450.7,450.7,0,0,0-51-2.2v10.7s46,2,48.8,3,5.1,7.7-2.8,6c0,0-40.7-2.9-45.4-2.1l1.3,29.3,62,3.6c11.8,1.2,11.8-2,10.9-9.2S343,310.4,336.1,306.7Zm-10.6,11.2L288.9,316l-.5-6.2,35.6,2C328.4,311.9,329.6,318.3,325.5,317.9Z"/><path d="M248.3,279.4l-40.7,1.3c-7.2,1.2-12.6,5.9-16.3,13.9a158.9,158.9,0,0,0-3,21.9c-.3,7,4.6,10.9,14.8,11.6l46.5-1c5-.4,13.9-4.9,15.1-12l-.3-20.9C262.6,285.5,257.3,280.6,248.3,279.4Zm.7,29.7c-.4,3.2-4.2,5.6-8.7,5.7l-28.6.5c-3.8-.2-5.8-1.8-5.9-4.9l.8-11.6a10.8,10.8,0,0,1,9.2-6.6l27.8-.7a7,7,0,0,1,5.5,6.5Z"/></g></g><g><path fill="#fff" d="M66.5,399.8l-2.6-.2c-3.5-.7-6.2-2.3-7.7-4.7a8.8,8.8,0,0,1-1-7.3l.6-2.2c2.1-8.3,4.9-18.7,15.4-24.1,3.7-1.9,7.7-2.7,11.5-3.5l2.5-.5c5-1.2,10-2.1,15.1-3.1l4.5-.9h3.3l.3-.9,33.9-4.3c3.3-.4,6.6-.8,9.9-1h.7a9.6,9.6,0,0,1,7.6,3.2,24.5,24.5,0,0,1,14.6-6c4.1-.2,8.1-.6,12.1-.9s8.4-.8,12.6-1h1a15.3,15.3,0,0,1,11.4,4.6c2-3.6,6-5.8,10.9-5.9h45.3v3.1h-1.5a8.8,8.8,0,0,1,6.8-2.9l18.2.8,8.9.6,2.4.2h1.6c3.6,0,7.6.2,10.2,3.4a6.9,6.9,0,0,1,1.4,2.5,12.7,12.7,0,0,1,9.3-4.1h.6c5.2.2,10.3.7,15.3,1.2l5.9.6,2.7.4,3.1.3H355a11.1,11.1,0,0,1,4.6,1l6.8.7,4.4.4v-.3l27.5,4.3,1.2.2h1l1.5.3,1.9.4,29.9,6.2c8.9,1.4,11,5.7,11.8,13.3l.7,7.7L430,377.7l7.2,21.5-11.9-1.7-7.6-1.3h-.3l-5.1-.8-7.6-1.3c-1.8-.4-4.2-1.7-5.5-5.9l-.5-1.6c-1.3-4.3-2.6-8.6-3.8-13l-.7-2.5-2.3-.4-8.8-1.2c.7,2.5,5.6,21.9,5.6,21.9l-8.4-1.1-2.8-.4c-2.6-.3-5-.6-7.3-1.1s-5.5-4-6.2-6.7l-1.2-5.1-25.4-2.5,1.6,10.8-22.5-1.6-.2-1.6a11.2,11.2,0,0,1-5.5,1.4h-1.3c-5.5-.6-11-1.1-16.3-1.2h-31v-1.9c0,.8-3.8,1.3-5.9,1.3H207.4v-1.6a30.3,30.3,0,0,1-13.9,3.5l-2.5.2-5.6.5v-.3h-.8l-13.2,1.1,9.5,8.2L168,394.6l-4,.5a59.7,59.7,0,0,1-8.5.9h-2.4c-3.7-.4-6.4-2.8-8.6-4.8l-1.3-1.2-5.4-4.6-7.7-6.5h-1.8a7.2,7.2,0,0,0-1.9.4,17.2,17.2,0,0,1-3.8.7c0,.2-.1.4-.1.6a8,8,0,0,0-.4,1.8c-.6,2.7-1.3,6.4-4.8,8.2a24.3,24.3,0,0,1-9,2.2l-3.1.4-8.3,1.4a22.8,22.8,0,0,1-4.8.9,115.9,115.9,0,0,0-13.7,2.4l-7.5,1.4A26.7,26.7,0,0,1,66.5,399.8Zm36.2-27.3-3.7.6c-5.5.8-10.9,1.6-16.1,2.9a4.7,4.7,0,0,0-3.6,3.3c4.9-.8,9.8-1.8,14.7-2.8l8-1.6A21.7,21.7,0,0,1,102.7,372.5Zm73.6-11.1a23.7,23.7,0,0,1-.2,2.9c2-.1,4,.2,6,.1s6.1-.3,9.1-.6l2.2-.2v-.2a4.3,4.3,0,0,1,0-1.6h-5c-2.5.2-5.4-.7-8.1-.4a8.4,8.4,0,0,1-4-.1Z"/><g fill="#000"><path d="M200.1,348.2c-8.2.4-16.5,1.4-24.7,1.8a18,18,0,0,0-11.3,4.9c-4.3,3.7-4.1,9-4.8,13.9-1.2,7.6,2.8,11.5,10.5,10.6s13.9-1.1,20.8-1.7v.2c2.9-.2,5.9-.1,8.6-.9,4.2-1.1,8.5-2.9,9.6-7.4a47,47,0,0,0,1.2-14.5C209.6,350.7,205.3,347.9,200.1,348.2Zm-.7,12.7a6.5,6.5,0,0,0-.4,1.9c.6,5.4-2.3,6.4-7.2,6.9s-10.9.9-16.3,1.4-5.3-.8-5.1-4.8c.2-6.9,1.9-8.4,9.1-9.4,4.2-.5,8.5-.6,11.8-.8h4.6C198.9,356.3,200.1,358,199.4,360.9Z"/><path d="M150,369.8c3.7-.6,5.3-2.8,5.7-6.4.2-1.7.9-3.4,1.2-5.1.8-3.4-.9-5.6-4.4-5.4s-7.9.8-11.9,1.3l-27.8,3.5-2.3,7.7c9.8-1.5,19.1-3.2,28.6-4.3,2-.2,4.9-2.4,7.3,1.6-2.5.8-4.7,1.9-7,2.2-9.2,1.3-18.5,2.4-27.7,3.6a4,4,0,0,0-2.6,2.3c-1.7,5.3-3.1,10.8-4.8,16.8,3.8-.6,7.5-.5,10.4-2s1.6-4.4,2.3-6.7a1.7,1.7,0,0,0,.1-.7c.5-2.3,1.1-4.1,4.3-3.9s4.3-.9,6.5-1.1,3.9-.2,5.1.7c4.8,3.7,9.2,7.8,13.8,11.7,2.2,1.7,4.4,4.4,6.8,4.6,4.4.4,8.9-.7,13.7-1.3l-21-17.9C148,370.5,149,370,150,369.8Z"/><path d="M255.3,356.9c-8.3,0-17.4.1-25.6,0-1.3,0-4.7-.4-4.7-.7V355c0-.3,3.3-.2,4.5-.3s5.8.5,8.2.5h24.5v-8.4c-12.4,0-25.7-.1-37.8.1-2.7,0-6.3,1.1-7.1,4.3a35,35,0,0,0-1.1,7.9c-.1,3.7,2.5,5.9,6.3,5.8,8.6-.3,17.2-.5,25.9-.5.9,0,1.7,1.1,2.7,1.7a13.7,13.7,0,0,1-2.7,2.2,10,10,0,0,1-3,.1c-7,0-14-.1-21,.1-3.5,0-7.1-.5-10.6-.2l-.5,5.5h20.8c7.3,0,14.8,1,22.1,1,4,0,6-1,6-4.9v-6.1C262.2,358.7,260.4,356.9,255.3,356.9Z"/><path d="M79.6,385c-2.2.4-5.2.9-6.7-.2s.4-4.2.8-6.3a10.2,10.2,0,0,1,7.8-8,146.1,146.1,0,0,1,16.3-2.9c7.5-1.1,7.5-.9,9.8-8.5a9.5,9.5,0,0,0-2.3-.1c-6.3,1.2-12.6,2.4-18.8,3.8-4.3,1-8.9,1.6-12.8,3.6-9,4.6-10.7,14-13.1,22.7-.8,3.1,1.7,4.4,4.3,4.9a14.1,14.1,0,0,0,5-.3c7.2-1.2,14.4-3.1,21.6-3.8,5.5-.6,9.1-2.2,9.8-8,0-.2-.1-.4-.2-1C93.9,382.3,86.8,383.8,79.6,385Z"/><path d="M399,358.9a10.9,10.9,0,0,1-2.6-.4L378,355.7c.4,1.8.8,3.2,1,4.6s1.6,3,3.5,3.3l10.2,1.4c5.9.8,6.1,1.2,7.7,7.1s2.8,9.6,4.2,14.3c.3.8.8,1.9,1.3,2.1l9.9,1.6c-2.6-8.2-5.5-15.8-7.1-23.6C407.4,360.6,403.9,359.3,399,358.9Z"/><path d="M306.9,358.3c-6.1-.4-12.2-.4-18.2-.7a73.8,73.8,0,0,1-8.1-.7c-.6-.1-1.1-1-1.7-1.5s1.4-1.2,2.1-1.2,3.1.5,4.7.6l25.2.9c1.3-5.9,0-7.6-5.8-7.6h-4.7l-27.3-1.2c-3.2-.1-5.1,2.1-5.1,5.2v6.1c0,3.9,2,6,5.9,6.2l20.2.7a45.3,45.3,0,0,1,7.4.8c.9.2,1.5,1.5,2.3,2.3-.8.5-1.7,1.6-2.6,1.6-5.5-.2-10.5-.7-16-.9s-10.6,0-16.8,0v7.7c6.2,0,16.8-.2,25.4,0,5.6.2,10.9.7,16.5,1.2,3.2.3,5.3-1.3,5.1-4.5s-1.1-5.7-1.2-8.5C313.9,360.1,310.3,358.6,306.9,358.3Z"/><path d="M439.8,373.9c-.6-6.2-1.7-7.4-7-8.2l-1.9-.4-22.2-4.6c3,9.6,5.9,18.7,8.8,27.6.3.9.8,2.2,1.4,2.4,3.2.7,6.4,1,10,1.6l-7.5-22.2Z"/><path d="M360.5,366.3a4.7,4.7,0,0,0-2.7-2.5,36.1,36.1,0,0,0-6.6-.8l-21.7-2.3c.2-2.5,1.4-3.4,3.7-3.1l26.2,2.5c-.2-1.3-.5-2.3-.6-3.4-.1-3-1.4-4.2-4.6-4s-4.8-.4-7.3-.7c-6.9-.6-13.9-1.5-20.9-1.8a7,7,0,0,0-7.2,8c.8,6.7,1.8,13.3,2.7,20.1l10.9.8-1.7-11,30.7,2.9C361.1,369.1,361.1,367.5,360.5,366.3Z"/><path d="M372.4,355.1a86.5,86.5,0,0,0-8.9-1c2.1,9.1,4,17.9,6,26.6.3.9,1.2,2.3,2,2.5,3,.6,6,.9,9.6,1.4-2.3-9.3-4.6-18.2-6.9-27.1C374,356.6,373.2,355.2,372.4,355.1Z"/></g></g></svg>