<svg id="icono-correr" xmlns="http://www.w3.org/2000/svg" viewBox="-45 70 90 90"><title>Velocidad, Potencia y Agilidad</title><style>@keyframes correr{0%,100%,6%{transform:none;opacity:1}2%{transform:translateX(100px);opacity:0}4%{transform:translateX(-100px);opacity:0}}#icono-correr{animation:correr 5s 2s infinite}</style><path d="M0.6,119.9c1.9,1.3,8.2,4.7,9.4,4.7c-4,1.2-6.5,2.7-8.5,2.7c-2,0-7.8,0.6-9.1,0C-5,125.8,0.6,119.9,0.6,119.9z M28.5,92.4 c1,0.9,1,3.6,3,1.5c1.5-0.4,2.2-1.4,2.7-1.5c1.9,0.2,2-0.9,2-1.5s0.6-1.1,1.1-1.1c0.5,0,1-1.5,1.2-2.6c0.2-1.1,0.1-5.9-3.1-7 c-3.2-1.1-6.2-0.2-6.9,1.8c-0.7,2.1-1.2,4.4-1.9,3.9c-0.6-0.5-1.2-0.2-1.2-1.2c0-1-2.2-3.9-4.3-5.1c-2-3.3-4.4-4.3-5.3-5.2 c-0.9-0.9-2.5-3.1-3.5-3.2c-1-0.1,0.1-1-0.9-1.1c-1-0.1-14.1-0.4-17.6,0c-3.6,0.4-7.1-0.3-8.3,0.4c-0.6,0.4-0.5,0.7-1.1,0.9 c-0.6,0.1-1.7,1.2-1.7,1.9c-1.1,0.2-2.2,1.3-1.8,1.5c0.4,0.2,2.7-0.8,3.4-0.6c0.7,0.2-2.3,1.7-2.6,2.1c-0.2,0.4,0.2,0.9,1,0.6 c0.8-0.2,3.1-1.8,4.6-1.5c1.4,0.3,1,0.4,1.2,1c0.2,0.6-1.5,1.4-1.5,2.5c0.1,1.2,0.7,1.3,1,0.6c0.4-0.7,1.2-1.9,2.2-2 c1-0.1,1.1-2.5,2.2-3.3c0.7-0.6,5.2-0.2,7.3,0.2c2,0.4,8.2,0.1,9.4,1c1.2,0.9,0.6,3.1,2.4,4.6c1.8,1.5,3.8,4.1,4.1,4.6 c-1.8,1.4-5.7,4.7-6.7,6.3c-1,1.5-4.3,6.2-4.7,6.5c0,1-1.6,2.3-2.8,2.7c-1.2,0.4-2.6,1.7-3.3,2.2c-1,0-1,0.2-1.4,0.6 c-0.7,0.2-1.4,1.2-1.7,1.7c0.5,0.2,0.5,0.1,0.1,0.5c-0.4,0.4-2.7,3.6-3.3,6.5c-1.7,2.2-3.5,3.9-4.3,4.6c-2.5,2.5-4.6,8.9-5.4,9.6 c-0.7,0.7-6.8,4-8.3,5.9c-1.5,1.9-1.3,2.8-1.6,3.1s-8.5,9-9.4,8.6c-0.9-0.4-4.9-1.1-5.6-0.9c-0.4,1.9-1,4.9-0.9,6 c0.1,1.1-0.5,3-0.8,4.6c-0.3,1.5-0.6,5.4,1,6.4c1.6,1,2.1-3.7,2.3-3.9c0.2-0.2,3.3-3.4,3.8-4.5c0.5-1.1,2.7-3.1,3.9-4.4 c1.2-1.2,12.5-10.8,14.6-11.8c2.1-1,4.1-2,5.1-2.7c0.4,2.9,2.4,10.8,5,11.2c2.6,0.4,1.5-1.5,1.5-2.7s-0.4-2.3,0.2-3 c0.6-0.6,0.1-1.8,0.5-2.7c0.4-0.9,2.2-1.8,2-2.1c-0.1-0.3-1-0.5,0.1-0.6c1.2-0.1,13.1-0.2,16.6,0c3.5,0.2,4.4-0.7,6.2-0.6 c1.7,0.1,2-0.8,2.7-0.9c0.7-0.1,2.6-1.9,1.5-5.1c-1-3.1-8-12.1-10.6-13.8c-0.2-2.6-0.5-1.7,0.1-2.2c0.6-0.4,4.1-1.9,5.5-3.3 c1.4-1.4,2.7-1.2,4-2.2c1.4-1,3.5-3.3,4.1-3.5c0.7-0.1,5.8,6.7,8.3,7.5c2.5,0.8,1.5,3,5.7,2.7c1.5-0.1,2.4-6,2.8-7.9 c0.2-1.4,0.9-6.6,1-7.4c0.1-0.8,1-2.9,1-3.4c0-0.4-0.3-1.3-0.2-2.3c0.1-1,0.2-4,0-4.2c-0.2-0.2-0.6-0.3-0.7,0.7 c-0.1,1.1-0.3,1.7-0.6,2.2c-0.2,0.4-0.4-2.3-0.4-3c0.1-0.7-0.7-2.9-0.7,0.1c0,4-0.6,2.7-0.6,2.5c0-0.6,0-1.3,0-1.9s0.2-2.3-0.2-2.5 c-0.4-0.2-0.6,0-0.7,1.3c0,1.2-0.1,2.3-0.1,2.7V89c-0.4,0.2-0.7-2.3-0.7-2.7c-0.1-1.9-1-2.4-0.9,0c0.1,1.1,0.3,2.3,0.5,2.8 c0.2,0.4,0.2,1.7,0.1,2.2c-0.6-0.8-0.3-1.5-0.7-1.7c-0.4-0.2-1.5-0.3-1,1.3c0.4,1.6,1.9,2.9,2.3,3.5c0.4,0.6,0.3,3-0.1,4.2 c-0.4,1.2-2,4.3-2.3,5.5c-0.7-1.3-3.4-2.8-4.5-3.3c-1.1-0.5,0.4-3-3.4-5.9C25.9,92,28.5,92.4,28.5,92.4z"></path></svg>