<svg id="icono-fuerza" xmlns="http://www.w3.org/2000/svg" viewBox="-45 70 90 90"><title>Fuerza y Resistencia Muscular</title><style>@keyframes fuerza{0%,100%,20%{transform:none}17%{transform:skewX(-35deg) skewY(15deg)}}#icono-fuerza{animation:fuerza 5s 1s infinite}</style><path d="M8.6,109.6c-3.6-8.1,2.2-19.8,19.3-19.8C40,89.9,45,99.3,45,108.3c0,13.5-14.4,18.9-14.4,18.9S23.4,151,1.4,151 c-7.6,0-12.1-0.9-15.3-1.3c-3.1,0-5.8,1.3-7.6,1.3c-1.8,0-13-7.6-16.6-17.5c-5.8-14.4-6.3-25.6-6.7-31.5c-0.4-8.1,0.9-13.5,4.9-17.1 c2.7-2.2,5.8-5.4,9.4-5.8c4-0.4,5.8,1.3,8.5,3.6c2.2,1.8,4.5,4.5,5.8,6.3c0.4,0.9,0.4,2.2-0.4,2.7c-6.3,5.8-11.2,5.8-12.6,4.9 c-2.2-2.2-4.5-0.9-3.6,1.3c0.9,1.8,2.2,8.5,7.6,13.5c6.3,5.4,8.1,10.3,9.9,14.4C-14.3,121.8-11.2,106.9,8.6,109.6z"></path></svg>