<svg id="icono-pino" xmlns="http://www.w3.org/2000/svg" viewBox="-45 70 90 90"><title>Coordinación, Equilibrio y Precisión</title><style>@keyframes pino{0%,100%,40%{transform:none}10%{transform:rotate(5deg)}30%{transform:rotate(-5deg)}}#icono-pino{animation:pino 5s 3s infinite;transform-origin:50% 85%}</style><path d="M0.8,157.5c0.2,0.2,0.4,0.3,0.6,0.4c0.6,0.5,0.6,1.1-0.1,1.5c-0.5,0.3-1.1,0.4-1.6,0.5c-2.1,0.3-4.2,0.2-6.2-0.5 c-0.3-0.1-0.6-0.3-0.9-0.4c-0.7-0.4-1.2-1-1.2-1.8c0.2-2.8-1-5.3-1.6-7.9c-0.3-1.1-0.5-2.3-0.7-3.4c-0.2-1.5,0.3-2.8,1.2-3.9 c0.5-0.7,1-1.4,1.5-2c0.2-0.3,0.4-0.6,0.6-0.8c0.7-1.2,0.6-1.2-0.2-2.3c-1.3-1.8-2.7-3.5-3.8-5.5c-1.5-2.7-2.5-5.7-3.1-8.7 c-0.6-3.1-0.7-6.1-0.3-9.2c0.2-1.6,0.9-3.1,1.6-4.6c1.4-3.4,3.1-6.6,5.2-9.5c0.4-0.6,0.8-1.2,0.9-1.9c0.4-2,1.5-3.5,2.9-4.8 c1.1-1,1.8-2.2,2.6-3.4c1.1-1.8,2.4-3.4,3.6-5c1.7-2.2,2.7-4.7,3.2-7.4c0.2-1.4,0.2-2.9-0.1-4.3c-0.1-0.4-0.4-0.8-0.5-1.2 c-0.1-0.3-0.1-0.7-0.2-1c0.3,0,0.7-0.1,1-0.1c0.5,0.1,1,0.2,1.4,0.4c0.9,0.5,1.4,1.3,1.8,2.2c0.5,1.1,0.6,2.3,0.5,3.5 c-0.1,1.2,0.2,2.1,1.1,2.9c0.8,0.7,0.9,1.7,0.1,2.5c-0.3,0.3-0.7,0.6-1.1,0.8C8,83,7.3,83.9,6.8,85.1c-0.7,1.8-1.3,3.6-1.9,5.3 c-0.7,1.9-1.9,3.5-3.4,4.9c-0.5,0.5-1,1-1.5,1.4c-1.8,1.6-2.5,3.6-2.5,6c0,1.4,0.1,2.7-0.4,4c-0.3,0.8-0.7,1.6-1.1,2.3 c-0.5,1-0.7,2.1-0.2,3.2c1,2.3,0.8,4.6-0.5,6.9c-0.8,1.5-0.7,2.9,0.2,4.3c1.7,2.5,3.7,4.8,6,6.7c0.5,0.4,0.9,0.8,1.4,1.3 c0.9,0.9,1.6,1.9,1.9,3.1c0.2,0.9,0.8,1.5,1.5,2c0.1,0.1,0.4,0.1,0.5,0c0.5-0.3,1-0.6,1.5-1c1.7-1.1,3.2-1,4.7,0.3 c0.9,0.8,1.7,1.8,2,3c0.4,1.6,0.1,3.1-1,4.5c-0.8,1.1-1.9,1.9-3.1,2.6c-0.5,0.3-1,0.4-1.5,0c-0.1-0.1-0.4-0.1-0.6-0.1 c-1,0-2,0.2-3-0.3c-0.6-0.3-1-0.7-1-1.4c0-0.1,0-0.2,0-0.3c-0.1-0.8-0.6-1.3-1.2-1.7c-0.6-0.4-1.2-0.8-1.7-1.3 c-0.4-0.4-0.8-0.8-1.3-1.3c-1.2,1.1-2.5,2.2-3.7,3.4c-1.2,1.3-1.6,3-1.7,4.7c-0.1,1.6,0,3.3,0,4.9c0,1,0.6,1.6,1.5,1.9 c1,0.3,2,0.4,3,0.6c0.6,0.1,1.1,0.3,1.7,0.4c0.2,0.1,0.4,0.2,0.6,0.3c0.7,0.5,0.7,0.9-0.1,1.3c-0.2,0.1-0.4,0.2-0.7,0.2 C1.3,157.4,1.1,157.4,0.8,157.5z"></path></svg>